<?xml version="1.0" encoding="UTF-8" standalone="no"?>
<!DOCTYPE svg PUBLIC "-//W3C//DTD SVG 1.1//EN" "http://www.w3.org/Graphics/SVG/1.1/DTD/svg11.dtd">
<svg xmlns="http://www.w3.org/2000/svg" xmlns:xl="http://www.w3.org/1999/xlink" version="1.1" viewBox="1157 1882 1300 1313" width="1300pt" height="1313pt" xmlns:dc="http://purl.org/dc/elements/1.1/">
  <metadata> Produced by OmniGraffle 7.0.2 
    <dc:date>2016-12-10 17:19:04 +0000</dc:date>
  </metadata>
  <defs/>
  <g stroke="none" stroke-opacity="1" stroke-dasharray="none" fill="none" fill-opacity="1">
    <title>Canvas 1</title>
    <g>
      <title>Layer 1</title>
      <path d="M 2313 2715 L 2313 3067.85 C 2313 3115.9705 2313 3156.8048 2312.4384 3193.0006 L 2453.1895 3193.0006 C 2455 3143.561 2455 3086.6583 2455 3015 L 2455 2715 Z M 2303.025 2316.2623 C 2310.8685 2373.9633 2312.5446 2433.2536 2312.9027 2517 L 2455 2517 L 2455 2493 C 2455 2393.22 2455 2322.0493 2450.1121 2259.8008 Z M 2437.3055 2164.4572 C 2434.9043 2152.3012 2432.1772 2140.0748 2429.08 2127.6 C 2403.16 2040.6 2338.36 1953.6 2273.56 1918.8 C 2195.8 1884 2131 1884 2001.4 1884 L 1612.6 1884 C 1483 1884 1418.2 1884 1340.44 1918.8 C 1275.64 1953.6 1210.84 2040.6 1184.92 2127.6 C 1159 2232 1159 2319 1159 2493 L 1159 3015 C 1159 3086.6583 1159 3143.561 1160.8105 3193.0006 L 1302.5616 3193.0006 C 1302 3156.8048 1302 3115.9705 1302 3067.85 L 1302 2591.15 C 1302 2432.25 1302 2352.8 1322.22 2257.46 C 1342.44 2178.01 1392.99 2098.56 1443.54 2066.78 C 1504.2 2035 1554.75 2035 1655.85 2035 L 1959.15 2035 C 2060.25 2035 2110.8 2035 2171.46 2066.78 C 2214.8625 2094.0665 2258.265 2156.4954 2282.4696 2223.8932 Z" fill="black"/>
      <path d="M 2313 2715 L 2313 3067.85 C 2313 3115.9705 2313 3156.8048 2312.4384 3193.0006 L 2453.1895 3193.0006 C 2455 3143.561 2455 3086.6583 2455 3015 L 2455 2715 Z M 2303.025 2316.2623 C 2310.8685 2373.9633 2312.5446 2433.2536 2312.9027 2517 L 2455 2517 L 2455 2493 C 2455 2393.22 2455 2322.0493 2450.1121 2259.8008 Z M 2437.3055 2164.4572 C 2434.9043 2152.3012 2432.1772 2140.0748 2429.08 2127.6 C 2403.16 2040.6 2338.36 1953.6 2273.56 1918.8 C 2195.8 1884 2131 1884 2001.4 1884 L 1612.6 1884 C 1483 1884 1418.2 1884 1340.44 1918.8 C 1275.64 1953.6 1210.84 2040.6 1184.92 2127.6 C 1159 2232 1159 2319 1159 2493 L 1159 3015 C 1159 3086.6583 1159 3143.561 1160.8105 3193.0006 L 1302.5616 3193.0006 C 1302 3156.8048 1302 3115.9705 1302 3067.85 L 1302 2591.15 C 1302 2432.25 1302 2352.8 1322.22 2257.46 C 1342.44 2178.01 1392.99 2098.56 1443.54 2066.78 C 1504.2 2035 1554.75 2035 1655.85 2035 L 1959.15 2035 C 2060.25 2035 2110.8 2035 2171.46 2066.78 C 2214.8625 2094.0665 2258.265 2156.4954 2282.4696 2223.8932 Z" stroke="black" stroke-linecap="round" stroke-linejoin="round" stroke-width="3"/>
      <path d="M 1802.5408 3193.0003 C 1802.847 3193.0007 1803.1534 3193.0007 1803.4597 3193.0003 L 2261.0002 3193.0003 L 2261.0002 2627.568 C 2261.0005 2627.1895 2261.0005 2626.811 2261.0002 2626.4325 L 2261.0002 2613.0003 L 2260.8612 2613.0003 C 2258.0726 2472.85 2213.4038 2333.7357 2126.8548 2226.7783 C 1947.9948 2005.7406 1658.0057 2005.7406 1479.1457 2226.7783 C 1300.2848 2447.815 1300.2848 2806.1857 1479.1457 3027.2223 C 1566.0323 3134.598 1679.1434 3189.8127 1793.0003 3192.8665 L 1793.0002 3193.0003 Z M 1607.6715 2904.251 C 1493.4426 2758.5857 1493.4426 2522.4155 1607.6715 2376.75 C 1721.8998 2231.0838 1907.1002 2231.0838 2021.3285 2376.75 C 2135.5574 2522.4155 2135.5574 2758.5857 2021.3285 2904.251 C 1907.1002 3049.9173 1721.8998 3049.9173 1607.6715 2904.251" fill="black"/>
    </g>
  </g>
</svg>
